<svg id="visual" viewBox="0 0 900 600" width="900" height="600" xmlns="http://www.w3.org/2000/svg" xmlns:xlink="http://www.w3.org/1999/xlink" version="1.1"><rect x="0" y="0" width="900" height="600" fill="#F7CACA"></rect><g transform="translate(777.3816208257578 15.792116537118972)"><path d="M370.5 -490C529.1 -474.6 740.3 -454.6 872.9 -345.4C1005.5 -236.3 1059.5 -38.1 977.8 100.9C896 239.9 678.5 319.7 518 378.2C357.4 436.8 253.8 474.1 157.1 475C60.5 475.9 -29.2 440.3 -149.9 438C-270.7 435.8 -422.5 466.7 -540.5 419.1C-658.4 371.4 -742.5 245.1 -765 108.2C-787.5 -28.8 -748.5 -176.4 -649.4 -256.4C-550.3 -336.3 -391.1 -348.6 -272.9 -382.4C-154.6 -416.3 -77.3 -471.6 14.3 -493.9C106 -516.2 211.9 -505.4 370.5 -490" fill="#C62368"></path></g></svg>